<?xml version="1.0" encoding="utf-8"?>
<!DOCTYPE svg PUBLIC "-//W3C//DTD SVG 20010904//EN" "http://www.w3.org/TR/2001/REC-SVG-20010904/DTD/svg10.dtd">
<svg version="1.0" xmlns="http://www.w3.org/2000/svg" width="608px" height="592px" viewBox="0 0 608 592" preserveAspectRatio="xMidYMid meet">
 <g fill="#212121">
  <path d="M0 296 l0 -296 304 0 304 0 0 296 0 296 -304 0 -304 0 0 -296z m305.6 227.5 c1.1 -2.7 1.1 -6.6 -0.1 -24.1 -0.8 -11.5 -1.5 -22.8 -1.5 -25 l0 -4.1 6.3 -1.3 c29.4 -6.1 47.9 -25 52.7 -54 2.3 -13.6 -3.3 -29.2 -14.1 -39.5 -12.7 -12.1 -30.6 -15.5 -49.4 -9.4 -8 2.7 -11.9 6.1 -13.7 12 -2 6.8 -1.7 65.8 0.5 98.9 2.8 43.2 3.9 48.8 9.4 52.2 2.6 1.5 2.9 1.5 5.6 -0.4 1.6 -1.2 3.5 -3.5 4.3 -5.3z m107.4 3 l3.4 -3.5 -1.4 -21.3 c-0.7 -11.6 -1.4 -23.4 -1.4 -26.2 l-0.1 -4.9 8.9 -2.3 c21.9 -5.6 36.2 -16.6 44.1 -33.8 6.1 -13.2 7.8 -26 5 -37 -4.4 -16.9 -16.8 -29 -33.7 -33 -8.2 -1.9 -14.2 -1.9 -23.1 0.1 -13.4 3 -17.7 6.5 -19.9 16.2 -2.1 9.2 -1.5 58.9 1.1 97.2 2.8 42.5 3.6 47.1 8.3 50.4 3.3 2.4 5 2 8.8 -1.9z m-183.9 1.5 c4.7 -2.6 4.9 -4.3 4.8 -46.7 0 -21.9 -0.4 -55.1 -0.7 -73.8 -0.7 -31.3 -0.9 -34.3 -2.6 -37 -4.1 -6.2 -6.6 -6.8 -11.6 -2.6 l-3.5 2.9 -0.4 29 -0.3 29 -13.2 0.7 c-7.2 0.3 -17.6 0.5 -23.1 0.3 l-10 -0.3 -0.7 -22.7 c-0.4 -12.4 -1.2 -24.4 -1.8 -26.6 -0.6 -2.4 -2.3 -5.1 -4.1 -6.7 -2.8 -2.3 -3.4 -2.4 -5.2 -1.2 -1.2 0.8 -3 2.6 -4.2 4.1 -1.9 2.6 -2 4.4 -2.3 29.1 l-0.3 26.3 -3.4 0.5 c-5.1 0.8 -10.2 3.5 -12 6.4 -1.7 2.5 -1.6 2.6 1.7 5.9 2.2 2.3 5 3.8 8.6 4.6 3.9 1 5.4 1.8 5.7 3.3 0.2 1.1 0.6 10.8 0.9 21.7 0.5 21.3 1.3 25.1 6.3 28.3 2.1 1.4 2.9 1.5 4.9 0.4 5.5 -2.9 5.9 -4.5 6.4 -30.1 0.3 -13 0.8 -24 1.2 -24.4 0.4 -0.4 10.8 -0.9 23.1 -1.2 l22.4 -0.5 0.7 33.6 c0.7 37.5 1.3 43.1 5.2 46.5 2.8 2.4 4.6 2.7 7.5 1.2z m-4.6 -235.2 c-0.2 -0.7 -9.2 -37.3 -20 -81.3 -10.8 -44 -19.8 -80.4 -20 -81 -0.2 -0.5 -0.4 7 -0.4 16.8 l-0.1 17.7 2.3 0 c2.2 0 2.9 2.5 18.2 64.5 15.2 61.6 16 64.5 18.2 64.5 1.3 0 2.1 -0.5 1.8 -1.2z m72.5 -0.6 c0 -1.5 4.6 -2.9 30.3 -9.1 29.5 -7.2 30.3 -7.5 33.9 -11.1 2 -2 3.9 -4.7 4.3 -6.1 0.4 -1.6 -6.2 -30.3 -18.5 -79.9 -25.8 -104.9 -24.4 -99.8 -28.2 -103.7 -6.2 -6.4 -3.3 -6.8 -68.3 9.3 -32.5 8 -60.7 14.8 -62.7 15.1 -3.4 0.5 -3.8 0.9 -3.8 3.6 0 2.2 0.3 2.7 1.3 1.9 1.2 -1 115.8 -29.6 123.6 -30.8 6 -1 9.9 1 11.1 5.5 0.5 2 10.2 41.1 21.5 87 21.8 88.6 22.8 93.8 18.3 96.2 -1.2 0.6 -22.5 6.2 -47.2 12.4 l-45.1 11.3 14.8 0.1 c13.5 0.1 14.7 0 14.7 -1.7z m96.6 -27.3 c6.7 -4.1 6.8 -4.5 15.6 -61.8 8.1 -52.1 8.3 -53.1 10.5 -53.1 l2.3 0 -0.1 -29.2 -0.1 -29.3 -13 83.5 c-9.4 60.7 -13.4 84 -14.5 85.2 -1.2 1.3 -3.2 1.8 -7.5 1.8 -5.5 0 -5.8 0.1 -5.8 2.5 0 2.3 0.4 2.5 4.6 2.5 3 0 5.9 -0.8 8 -2.1z m-78.7 -27.5 c5.3 -2.2 2.6 -3.7 -3.3 -1.9 -2.7 0.8 -6.4 1.5 -8.3 1.5 -3 0 -3.3 -0.3 -3.3 -3.1 0 -1.7 1.5 -5.8 3.4 -9.2 5.1 -9.1 7.1 -15.9 5.6 -18.9 -2.1 -3.9 -6.1 -7.7 -9.1 -8.3 -7.3 -1.6 -18.6 10.1 -14.9 15.5 0.9 1.3 1.2 1.2 2.5 -0.4 0.8 -1.1 1.5 -2.8 1.5 -3.7 0 -1 0.5 -3 1.2 -4.4 1 -2.2 1.7 -2.5 6.3 -2.5 6.9 0 7.8 1.2 7.3 9.7 -0.3 5.8 -1.2 8.6 -6.1 18.7 -3.1 6.5 -5.5 12.2 -5.2 12.6 0.5 0.8 16.5 -3.2 22.4 -5.6z m52.1 -52.9 c1.9 -2 3.4 -2.5 7.9 -2.7 3.6 -0.1 4.4 -0.3 2.4 -0.5 -2.8 -0.4 -3.3 -0.8 -3.3 -3.2 0 -2.8 8.5 -20.3 10.1 -20.9 0.5 -0.2 0.9 -1.3 0.9 -2.5 0 -2.2 -0.3 -2.2 -15.1 -2.3 -10.7 -0.1 -14.9 0.2 -14.6 1 0.2 0.6 2.1 8.4 4.2 17.4 2.1 8.9 4.2 16.2 4.5 16.2 0.4 0 1.7 -1.1 3 -2.5z m-123.9 -21.6 c-2.8 -10.1 -5.7 -19 -6.5 -19.7 -1.2 -1.2 -2 -1.2 -5.7 -0.1 -5.9 1.9 -6.3 3.9 -0.7 3.9 l4.3 0 4.4 15.8 c4.4 16.2 6.5 21.2 8.3 19.4 0.6 -0.6 -0.9 -7.4 -4.1 -19.3z m136.3 -22.5 c2.5 -0.4 4.6 -1 4.6 -1.5 0 -0.8 -8.7 -4.3 -13.7 -5.4 -3.2 -0.6 -3.3 -0.6 -3.3 2.9 0 2.8 0.4 3.5 2.3 3.9 3.7 0.7 5.2 0.7 10.1 0.1z m-17 -29.1 c5 -8.2 4.5 -8.9 -0.9 -1.2 -5.1 7.3 -6 9.8 -4.9 13.7 0.7 2.5 0.8 2.4 1.5 -2 0.4 -2.6 2.3 -7.3 4.3 -10.5z m-13.9 -22.1 c-0.4 -0.5 -4.5 10.6 -4.5 12.1 0 0.7 0.5 3 1.2 5.2 1.1 3.9 1.2 3.9 2.4 -6.5 0.6 -5.8 1 -10.6 0.9 -10.8z m73.3 -23.7 c-0.2 -0.2 -6.5 -1.3 -14 -2.6 -11.9 -1.9 -13.8 -2.5 -13.8 -4.1 0 -1.7 -1.4 -1.8 -26.2 -1.7 l-26.3 0.1 37.5 5.8 c20.6 3.2 38.6 6.2 40 6.7 2.2 0.8 2.5 0.6 2.8 -1.5 0.2 -1.3 0.2 -2.5 0 -2.7z m-139.2 -1.4 c0.3 -2 0.8 -4.4 1.1 -5.3 0.3 -1.4 -0.2 -1.8 -2.6 -1.8 -3 0 -3.1 0.2 -3.1 4.4 0 2.4 -0.3 5.1 -0.6 5.9 -0.4 1.1 0.1 1.3 2 1 2 -0.4 2.7 -1.3 3.2 -4.2z"/>
  <path d="M302.4 450.9 c-0.4 -0.8 -1 -16.6 -1.2 -35.1 l-0.4 -33.6 4.6 -0.7 c2.5 -0.4 9.2 -0.6 14.8 -0.3 12.2 0.4 17.4 2.7 22.2 9.6 2.8 3.9 3.1 5.1 3.4 14.1 0.9 22.1 -5.9 35 -22.6 42.9 -8.5 4.1 -19.2 5.6 -20.8 3.1z"/>
  <path d="M411.7 449.9 c-0.4 -1.3 -0.7 -17.1 -0.7 -35 l0 -32.7 2.3 -0.6 c4.4 -1.2 22.3 -0.6 27.3 0.9 5.5 1.6 11 6.3 13 11.1 3.5 8.4 2.5 25.8 -2.1 36.1 -5.3 11.8 -19 21 -32.6 22.1 -6.3 0.4 -6.6 0.3 -7.2 -1.9z"/>
 </g>
 <g fill="#00bcd4">
  <path d="M220.2 531 c-1.8 -1.1 -3.7 -3.2 -4.3 -4.8 -1.3 -3.3 -2.8 -33.1 -2.9 -58.1 l0 -18.4 -19.6 0.5 c-15 0.4 -19.8 0.9 -20.5 1.9 -0.5 0.8 -0.9 10.4 -0.9 21.4 0 23.9 -0.4 26.8 -4.1 30.4 -3.9 3.9 -7.3 4.6 -11.7 2.3 -6.4 -3.3 -7.3 -6.5 -7.8 -28.9 -0.3 -10.9 -0.7 -20.7 -0.9 -21.8 -0.3 -1.5 -1.8 -2.3 -5.7 -3.3 -10.8 -2.5 -15.3 -11.5 -8.9 -17.9 2.7 -2.7 8.8 -5.3 12.5 -5.3 1.4 0 1.6 -2.4 1.6 -23.7 0 -13.1 0.5 -25.6 1 -27.8 1.2 -5.3 5.9 -9.5 10.4 -9.5 4.6 0 9.3 4 10.6 9.2 0.6 2.2 1.4 14.2 1.8 26.6 l0.7 22.7 7 0.3 c3.9 0.2 12.9 0.1 20.1 -0.3 l13.2 -0.7 0.3 -29 0.4 -29 3.4 -2.9 c4.5 -3.7 8.2 -4.4 12.3 -2.5 7 3.4 7.2 4.2 7.9 42.1 0.4 18.7 0.8 53.3 0.8 76.8 0.1 47.6 0.1 47.5 -6.4 50.3 -4.6 1.9 -6.4 1.8 -10.3 -0.6z"/>
  <path d="M181.5 295.7 c-0.3 -0.6 -0.4 -55.2 -0.3 -121.2 l0.3 -120 121.5 0 121.5 0 0 121 0 121 -121.3 0.3 c-96.7 0.2 -121.4 0 -121.7 -1.1z m20.9 -59.4 c-7.8 -31.8 -14.9 -60.3 -15.7 -63.3 -1.4 -5 -1.5 -0.3 -1.6 57.8 l-0.1 63.2 15.9 0 15.8 0 -14.3 -57.7z m99 45.2 c28.1 -6.9 52.6 -13.2 54.4 -14 2.5 -1.2 3.2 -2.1 3.2 -4.4 0 -2.1 -36.2 -151.3 -42.1 -173.3 -1 -3.8 -3.5 -5.5 -7.4 -4.9 -7.8 1.1 -120.4 29.6 -121.7 30.9 -1 0.8 -1.8 2.2 -1.8 3.1 -0.1 0.9 9.5 40.6 21.2 88.3 l21.3 86.8 10.9 0 c10.6 0 12.4 -0.4 62 -12.5z m119.5 -58.2 c-0.1 -39 -0.3 -70.1 -0.5 -69.3 -0.2 0.8 -4 24.8 -8.4 53.4 -8.6 55.8 -8.8 56.5 -15.3 60.4 -4.3 2.7 -8.2 3.3 -14.1 2.4 l-5 -0.7 0 -5.8 -0.1 -5.8 6 0.6 c5.1 0.6 6.3 0.4 7.7 -1.2 1.3 -1.4 4.9 -22.5 14.9 -86.8 7.2 -46.8 13.4 -87.3 13.6 -90.2 0.5 -4.6 0.3 -5.3 -1.8 -6.6 -1.5 -1 -21.2 -4.4 -51.9 -9.1 -44.7 -6.9 -50.9 -7.6 -64.1 -7.6 l-14.7 0 -0.7 4.8 c-1.2 8.9 -1.2 8.8 -7.2 10.1 -3 0.7 -5.6 1.1 -5.9 0.9 -0.2 -0.3 0 -2.9 0.6 -5.8 0.5 -2.9 1 -6.3 1 -7.6 l0 -2.4 -45 0 -45 0 -0.1 13.8 c-0.1 17.9 0.1 32.5 0.4 32.8 0.1 0.1 26.5 -6.3 58.5 -14.2 32.1 -7.9 60.1 -14.7 62.3 -15 5.9 -1 10.6 0.4 14.9 4.2 4.6 4.2 2.2 -4.4 28 100.1 11 44.7 20 83.1 20 85.3 0 4.7 -1.7 8.5 -5.5 12 -2.2 2 -8.2 3.9 -33.3 10.2 l-30.7 7.6 60.8 0.1 60.7 0.1 -0.1 -70.7z m-0.2 -165.9 c-0.2 -0.3 -5.8 -0.3 -12.3 -0.2 l-11.9 0.3 12 2 c11.6 1.9 12 1.9 12.3 0.2 0.2 -1 0.2 -2.1 -0.1 -2.3z"/>
 </g>
 <g fill="#fbc02d">
  <path d="M292.8 532.2 c-1.6 -0.9 -3.4 -3 -4.2 -4.7 -3.7 -7.8 -7.1 -61.7 -7.1 -111 0 -40.4 0.4 -43.7 5.5 -48.5 4.3 -4.1 14.9 -7.1 26.5 -7.7 17.5 -0.9 28.3 2.5 38.5 12.3 14.4 13.8 18.6 35.8 11 57.9 -7.5 21.8 -25.1 36.4 -49.9 41.5 l-6.3 1.3 0.6 6.6 c0.3 3.6 1.1 14.6 1.7 24.3 1.2 20.2 0.7 23.3 -4.5 27.3 -3.8 2.9 -8 3.2 -11.8 0.7z m27.8 -87.6 c3.9 -1.9 9.1 -5.3 11.4 -7.6 7.6 -7.6 11.6 -19.8 10.7 -32.3 -0.9 -12.6 -8.5 -19.6 -22.3 -20.5 -4 -0.2 -9.4 -0.1 -11.9 0.3 l-4.8 0.7 0.5 30.7 c0.2 16.9 0.8 31.3 1.2 32 1.2 1.9 6.7 0.8 15.2 -3.3z"/>
  <path d="M288.8 244.6 c-0.9 -2.1 -0.2 -4.2 5.2 -15.6 8.3 -17.6 9 -24 2.5 -24 -2.2 0 -4.5 3.4 -4.5 6.8 0 5.5 -7.7 8.5 -10.1 4.1 -1.7 -3.2 -0.6 -11.1 2 -14.8 5.2 -7.3 17.9 -9.4 23.7 -4 7 6.6 7.1 14.2 0 28.1 l-4.4 8.8 2.6 -0.6 c1.5 -0.4 3.7 -1.1 5 -1.5 3.4 -1.3 8.6 -1.1 10 0.3 1.9 1.9 1.4 5.6 -1 7.2 -2.9 1.8 -23.3 7.6 -27.1 7.6 -1.9 0 -3.1 -0.7 -3.9 -2.4z"/>
  <path d="M248.2 231.1 c-0.8 -0.5 -1.2 -1.5 -1 -2.4 0.6 -3.1 46.3 -82.7 47.7 -83.2 0.8 -0.3 2.1 0.1 2.9 0.9 1.3 1.3 -1.5 6.7 -22.4 43.2 -13.2 23 -24.3 41.9 -24.9 42.1 -0.5 0.1 -1.6 -0.1 -2.3 -0.6z"/>
  <path d="M361.1 192.4 c-0.5 -2.1 -3.2 -13 -5.9 -24.2 l-4.9 -20.3 5.6 0.7 c10.6 1.3 27.5 0.8 31 -0.9 3.5 -1.8 3.4 -2.1 1.6 4.1 -0.5 1.7 -0.2 2.2 1.1 2.2 1 0 3.7 0.9 6 2 3.2 1.6 4.6 3.1 5.8 6.1 2 5 2 6.9 0 11.9 -2.6 6.5 -12.8 11 -24.9 11 -4 0 -4.7 0.4 -9.3 5.7 l-5 5.7 -1.1 -4z m25 -15.5 c6.6 -1.4 9.9 -4.6 9.9 -9.3 0 -3.9 -2.8 -6.5 -7.3 -6.9 -2.1 -0.2 -3 0.9 -7 8.6 -5 9.8 -5.1 9.6 4.4 7.6z"/>
  <path d="M242.3 184.6 c-1.1 -1.3 -3.9 -9.7 -6.4 -18.6 -4.3 -15.7 -4.4 -16.1 -6.8 -15.7 -6.1 1.2 -9.8 -3.7 -5.8 -7.7 1.2 -1.2 4.8 -2.8 8 -3.6 5.4 -1.3 5.9 -1.2 7.7 0.6 2.8 2.8 13.2 40.7 12 43.8 -1.5 4.2 -5.9 4.8 -8.7 1.2z"/>
  <path d="M357.5 142.8 c-3.8 -0.4 -7.5 -1 -8 -1.2 -1 -0.4 -5.1 -15.4 -4.4 -16.1 0.2 -0.2 1.6 -0.1 3 0.2 1.8 0.3 2.9 1.5 3.8 3.9 1.6 4.6 7.5 10.7 9.8 10.2 1.5 -0.3 1.8 -1.3 1.8 -5.6 l0 -5.4 4.4 0.7 c9.9 1.5 23.1 6.9 23.1 9.5 0 0.5 -1.2 1.7 -2.6 2.7 -3.1 2 -19 2.6 -30.9 1.1z"/>
  <path d="M357.1 132.5 c-6.2 -7.1 -6 -14.7 0.7 -24.3 4.4 -6.3 7.2 -12.3 7.2 -15.5 0 -2.1 0 -2.1 2.3 0.1 1.8 1.9 2.2 3.4 2.2 8.6 0 5.6 -0.4 7 -4 12.7 -3.8 6 -4 6.8 -4 14.1 0 4.3 -0.3 7.8 -0.6 7.8 -0.4 0 -2.1 -1.6 -3.8 -3.5z"/>
  <path d="M342.2 110.1 l-2.3 -9.9 2.5 -6.7 c3.2 -8.8 9.7 -15.5 15 -15.5 1.3 0 1.2 0.6 -0.5 3.4 -3.5 6 -5.8 14 -6.4 22.7 -0.5 8 -2.8 14.9 -5 15.6 -0.6 0.2 -2.1 -4 -3.3 -9.6z"/>
 </g>
 <g fill="#ec407a">
  <path d="M402.2 532 c-5.7 -3.5 -6.3 -6.8 -9.4 -51 -2.6 -38.6 -3.1 -93.8 -1 -103.2 2.2 -9.7 6.5 -13.2 19.9 -16.2 13.8 -3.1 29.6 -1.5 40.5 4 6.4 3.2 14.4 11.3 18 18 8 14.8 7.7 35.8 -0.7 53.9 -7.9 17.2 -22.2 28.1 -44.1 33.8 -8.3 2.1 -8.9 2.5 -8.8 4.7 0.1 1.4 0.7 9.4 1.3 17.9 0.6 8.5 1.1 19.3 1.1 24.1 l0 8.8 -4 3.6 c-4.6 4.2 -7.9 4.6 -12.8 1.6z m28.2 -87.5 c12.2 -5.8 18.5 -14.2 21.2 -28.3 4 -20.9 -5.2 -32.2 -26 -32.2 -3.9 0 -8.1 0.3 -9.3 0.6 l-2.3 0.6 0 29.7 c0 16.3 0.3 30.7 0.7 32 0.5 2.1 1 2.2 4.4 1.7 2.1 -0.3 7.2 -2.2 11.3 -4.1z"/>
 </g>
</svg>